# xmcd
#
# Track frame offsets:
#	150
#	17360
#	29714
#	49216
#	66991
#	81896
#	94933
#	114106
#	127658
#	144495
#	165189
#	180959
#	202542
#	217224
#	228472
#	243762
#
# Disc length: 3474 seconds
#
# Revision: 1
# Processed by: cddbd v1.4PL0 Copyright (c) Steve Scherf et al.
# Submitted via: audiograbber 1.81.01
#
DISCID=c50d9010
DTITLE=Sarah Spencer - Sings The Blues
DYEAR=1900
DGENRE=Blues
TTITLE0=Freight Train Blues
TTITLE1=Separation Blues
TTITLE2=Hot Nuts
TTITLE3=Whip it to a Jelly
TTITLE4=Someday You'll want me to want you
TTITLE5=Ease it
TTITLE6=Fore Day Rider
TTITLE7=Percolatin` Blues
TTITLE8=Don't you Feel My Leg
TTITLE9=Why - C. O. D - Hear Me Talking to You;
TTITLE10=Love Songs of the Nile
TTITLE11=How Long Blues
TTITLE12=Stormy Evening Blues
TTITLE13=His eye is on the sparrow
TTITLE14=Yonder Comes the Blues
TTITLE15=We shall walk through the streets of the City.
EXTD=
EXTT0=
EXTT1=
EXTT2=
EXTT3=
EXTT4=
EXTT5=
EXTT6=
EXTT7=
EXTT8=
EXTT9=
EXTT10=
EXTT11=
EXTT12=
EXTT13=
EXTT14=
EXTT15=
PLAYORDER=
